M48
;DRILL file {KiCad (5.0.1)-4} date 11/08/2019 16:43:16
;FORMAT={-:-/ absolute / metric / decimal}
FMAT,2
METRIC,TZ
T1C0.762
T2C0.800
T3C1.000
T4C1.500
T5C1.520
%
G90
G05
M71
T1
X-71.55Y5.47
X-71.52Y28.49
X-69.01Y5.47
X-68.98Y28.49
X-66.47Y5.47
X-66.44Y28.49
X-63.93Y5.47
X-63.9Y28.49
X-61.39Y5.47
X-61.36Y28.49
X-58.85Y5.47
X-58.82Y28.49
X-56.31Y5.47
X-56.28Y28.49
X-53.77Y5.47
X-53.74Y28.49
T2
X-73.72Y8.7
X-69.Y11.
X-58.Y11.
X-29.27Y34.1
X-29.27Y23.94
X-47.16Y38.
X-37.Y38.
X-12.76Y39.18
X-2.6Y39.18
X-50.08Y35.
X-45.Y35.
X-74.Y45.
X-74.Y32.3
X-37.Y54.7
X-37.Y42.
X-41.Y34.
X-36.Y34.
X-27.Y40.
X-27.Y37.46
X-19.38Y40.
X-19.38Y37.46
X-34.Y30.16
X-34.Y20.
T3
X-21.65Y20.13
X-26.32Y44.
X-23.78Y44.
X-13.62Y44.
X-6.Y44.
X-66.16Y35.
X-63.62Y35.
X-61.08Y35.
X-58.54Y35.
X-56.Y35.
X-21.65Y17.59
X-21.65Y15.05
T4
X-74.Y58.27
X-74.Y53.19
X-74.Y48.11
X-68.Y50.08
X-68.Y45.
X-41.33Y50.08
X-41.33Y45.
T5
X-31.Y55.
X-25.92Y55.
X-20.84Y55.
X-15.76Y55.
X-10.68Y55.
X-5.6Y55.
T0
M30
