G04 #@! TF.GenerationSoftware,KiCad,Pcbnew,(5.0.1)-4*
G04 #@! TF.CreationDate,2019-08-11T16:43:12+02:00*
G04 #@! TF.ProjectId,Portier_connecte,506F72746965725F636F6E6E65637465,rev?*
G04 #@! TF.SameCoordinates,PX93d1cc0PY754d4c0*
G04 #@! TF.FileFunction,Copper,L2,Bot,Signal*
G04 #@! TF.FilePolarity,Positive*
%FSLAX46Y46*%
G04 Gerber Fmt 4.6, Leading zero omitted, Abs format (unit mm)*
G04 Created by KiCad (PCBNEW (5.0.1)-4) date 11/08/2019 16:43:12*
%MOMM*%
%LPD*%
G01*
G04 APERTURE LIST*
G04 #@! TA.AperFunction,ComponentPad*
%ADD10C,1.600000*%
G04 #@! TD*
G04 #@! TA.AperFunction,ComponentPad*
%ADD11O,1.600000X1.600000*%
G04 #@! TD*
G04 #@! TA.AperFunction,ComponentPad*
%ADD12R,1.700000X1.700000*%
G04 #@! TD*
G04 #@! TA.AperFunction,ComponentPad*
%ADD13O,1.700000X1.700000*%
G04 #@! TD*
G04 #@! TA.AperFunction,ComponentPad*
%ADD14C,3.000000*%
G04 #@! TD*
G04 #@! TA.AperFunction,ComponentPad*
%ADD15R,3.000000X3.000000*%
G04 #@! TD*
G04 #@! TA.AperFunction,ComponentPad*
%ADD16C,1.508000*%
G04 #@! TD*
G04 #@! TA.AperFunction,ComponentPad*
%ADD17R,1.508000X1.508000*%
G04 #@! TD*
G04 #@! TA.AperFunction,ComponentPad*
%ADD18C,1.524000*%
G04 #@! TD*
G04 #@! TA.AperFunction,ComponentPad*
%ADD19R,1.524000X1.524000*%
G04 #@! TD*
G04 #@! TA.AperFunction,ComponentPad*
%ADD20R,1.600000X1.600000*%
G04 #@! TD*
G04 #@! TA.AperFunction,ComponentPad*
%ADD21O,3.500000X2.200000*%
G04 #@! TD*
G04 #@! TA.AperFunction,ViaPad*
%ADD22C,2.000000*%
G04 #@! TD*
G04 #@! TA.AperFunction,Conductor*
%ADD23C,1.000000*%
G04 #@! TD*
G04 #@! TA.AperFunction,Conductor*
%ADD24C,0.254000*%
G04 #@! TD*
G04 APERTURE END LIST*
D10*
G04 #@! TO.P,F1,1*
G04 #@! TO.N,Net-(F1-Pad1)*
X-37000000Y42000000D03*
D11*
G04 #@! TO.P,F1,2*
G04 #@! TO.N,Net-(F1-Pad2)*
X-37000000Y54700000D03*
G04 #@! TD*
D10*
G04 #@! TO.P,C1,1*
G04 #@! TO.N,Net-(C1-Pad1)*
X-41000000Y34000000D03*
G04 #@! TO.P,C1,2*
G04 #@! TO.N,GND*
X-36000000Y34000000D03*
G04 #@! TD*
D11*
G04 #@! TO.P,F2,2*
G04 #@! TO.N,+5V*
X-74000000Y32300000D03*
D10*
G04 #@! TO.P,F2,1*
G04 #@! TO.N,Net-(F2-Pad1)*
X-74000000Y45000000D03*
G04 #@! TD*
D12*
G04 #@! TO.P,J1,1*
G04 #@! TO.N,Net-(J1-Pad1)*
X-56000000Y35000000D03*
D13*
G04 #@! TO.P,J1,2*
G04 #@! TO.N,Net-(J1-Pad2)*
X-58540000Y35000000D03*
G04 #@! TO.P,J1,3*
G04 #@! TO.N,GND*
X-61080000Y35000000D03*
G04 #@! TO.P,J1,4*
X-63620000Y35000000D03*
G04 #@! TO.P,J1,5*
G04 #@! TO.N,Net-(J1-Pad5)*
X-66160000Y35000000D03*
G04 #@! TD*
D14*
G04 #@! TO.P,J2,2*
G04 #@! TO.N,Net-(F1-Pad2)*
X-25920000Y55000000D03*
G04 #@! TO.P,J2,3*
G04 #@! TO.N,Earth*
X-20840000Y55000000D03*
D15*
G04 #@! TO.P,J2,1*
G04 #@! TO.N,Net-(J2-Pad1)*
X-31000000Y55000000D03*
D14*
G04 #@! TO.P,J2,4*
X-15760000Y55000000D03*
G04 #@! TO.P,J2,5*
G04 #@! TO.N,Net-(J2-Pad5)*
X-10680000Y55000000D03*
G04 #@! TO.P,J2,6*
G04 #@! TO.N,Earth*
X-5600000Y55000000D03*
G04 #@! TD*
D16*
G04 #@! TO.P,K1,4*
G04 #@! TO.N,GND*
X-26320000Y44000000D03*
G04 #@! TO.P,K1,3*
G04 #@! TO.N,Net-(K1-Pad3)*
X-23780000Y44000000D03*
G04 #@! TO.P,K1,2*
G04 #@! TO.N,Net-(K1-Pad2)*
X-13620000Y44000000D03*
D17*
G04 #@! TO.P,K1,1*
G04 #@! TO.N,Net-(J2-Pad5)*
X-6000000Y44000000D03*
G04 #@! TD*
D12*
G04 #@! TO.P,PIR1,1*
G04 #@! TO.N,GND*
X-21650000Y20130000D03*
D13*
G04 #@! TO.P,PIR1,2*
G04 #@! TO.N,Net-(PIR1-Pad2)*
X-21650000Y17590000D03*
G04 #@! TO.P,PIR1,3*
G04 #@! TO.N,+5V*
X-21650000Y15050000D03*
G04 #@! TD*
D14*
G04 #@! TO.P,PS1,3*
G04 #@! TO.N,GND*
X-68000000Y50080000D03*
G04 #@! TO.P,PS1,2*
G04 #@! TO.N,Net-(J2-Pad1)*
X-41330000Y50080000D03*
G04 #@! TO.P,PS1,4*
G04 #@! TO.N,Net-(F2-Pad1)*
X-68000000Y45000000D03*
D15*
G04 #@! TO.P,PS1,1*
G04 #@! TO.N,Net-(K1-Pad2)*
X-41330000Y45000000D03*
G04 #@! TD*
D10*
G04 #@! TO.P,R1,1*
G04 #@! TO.N,Net-(C1-Pad1)*
X-45000000Y35000000D03*
D11*
G04 #@! TO.P,R1,2*
G04 #@! TO.N,GND*
X-50080000Y35000000D03*
G04 #@! TD*
D10*
G04 #@! TO.P,R2,1*
G04 #@! TO.N,+3V3*
X-34000000Y20000000D03*
D11*
G04 #@! TO.P,R2,2*
G04 #@! TO.N,Net-(C1-Pad1)*
X-34000000Y30160000D03*
G04 #@! TD*
G04 #@! TO.P,R3,2*
G04 #@! TO.N,GND*
X-47160000Y38000000D03*
D10*
G04 #@! TO.P,R3,1*
G04 #@! TO.N,Net-(K1-Pad3)*
X-37000000Y38000000D03*
G04 #@! TD*
G04 #@! TO.P,R4,1*
G04 #@! TO.N,Net-(R4-Pad1)*
X-29270000Y34100000D03*
D11*
G04 #@! TO.P,R4,2*
G04 #@! TO.N,GND*
X-29270000Y23940000D03*
G04 #@! TD*
D18*
G04 #@! TO.P,U1,1*
G04 #@! TO.N,GND*
X-53740000Y28490000D03*
G04 #@! TO.P,U1,2*
G04 #@! TO.N,Net-(J1-Pad1)*
X-56280000Y28490000D03*
G04 #@! TO.P,U1,3*
G04 #@! TO.N,Net-(J1-Pad2)*
X-58820000Y28490000D03*
G04 #@! TO.P,U1,4*
G04 #@! TO.N,Net-(U1-Pad4)*
X-61360000Y28490000D03*
G04 #@! TO.P,U1,5*
G04 #@! TO.N,GND*
X-63900000Y28490000D03*
G04 #@! TO.P,U1,6*
G04 #@! TO.N,Net-(J1-Pad5)*
X-66440000Y28490000D03*
G04 #@! TO.P,U1,7*
G04 #@! TO.N,Net-(U1-Pad7)*
X-68980000Y28490000D03*
D19*
G04 #@! TO.P,U1,8*
G04 #@! TO.N,+3V3*
X-71520000Y28490000D03*
G04 #@! TO.P,U1,9*
G04 #@! TO.N,+5V*
X-71550000Y5470000D03*
D18*
G04 #@! TO.P,U1,10*
G04 #@! TO.N,GND*
X-69010000Y5470000D03*
G04 #@! TO.P,U1,11*
G04 #@! TO.N,Net-(U1-Pad11)*
X-66470000Y5470000D03*
G04 #@! TO.P,U1,12*
G04 #@! TO.N,Net-(C1-Pad1)*
X-63930000Y5470000D03*
G04 #@! TO.P,U1,13*
G04 #@! TO.N,Net-(U1-Pad13)*
X-61390000Y5470000D03*
G04 #@! TO.P,U1,14*
G04 #@! TO.N,Net-(PIR1-Pad2)*
X-58850000Y5470000D03*
G04 #@! TO.P,U1,15*
G04 #@! TO.N,Net-(U1-Pad15)*
X-56310000Y5470000D03*
G04 #@! TO.P,U1,16*
G04 #@! TO.N,Net-(U1-Pad16)*
X-53770000Y5470000D03*
G04 #@! TD*
D20*
G04 #@! TO.P,U2,1*
G04 #@! TO.N,Net-(U1-Pad15)*
X-27000000Y40000000D03*
D11*
G04 #@! TO.P,U2,3*
G04 #@! TO.N,Net-(K1-Pad3)*
X-19380000Y37460000D03*
G04 #@! TO.P,U2,2*
G04 #@! TO.N,Net-(R4-Pad1)*
X-27000000Y37460000D03*
G04 #@! TO.P,U2,4*
G04 #@! TO.N,+5V*
X-19380000Y40000000D03*
G04 #@! TD*
D10*
G04 #@! TO.P,JP1,1*
G04 #@! TO.N,Earth*
X-2600000Y39180000D03*
D11*
G04 #@! TO.P,JP1,2*
G04 #@! TO.N,GND*
X-12760000Y39180000D03*
G04 #@! TD*
D21*
G04 #@! TO.P,SW1,1*
G04 #@! TO.N,Net-(K1-Pad2)*
X-74000000Y58270000D03*
G04 #@! TO.P,SW1,3*
G04 #@! TO.N,Net-(SW1-Pad3)*
X-74000000Y48110000D03*
G04 #@! TO.P,SW1,2*
G04 #@! TO.N,Net-(F1-Pad1)*
X-74000000Y53190000D03*
G04 #@! TD*
D22*
G04 #@! TO.N,*
X-73720000Y8700000D03*
G04 #@! TO.N,+3V3*
X-58000000Y11000000D03*
X-69000000Y11000000D03*
G04 #@! TD*
D23*
G04 #@! TO.N,Net-(C1-Pad1)*
X-45799999Y34200001D02*
X-45799999Y32200001D01*
X-45000000Y35000000D02*
X-45799999Y34200001D01*
X-63930000Y14070000D02*
X-63930000Y5470000D01*
X-45799999Y32200001D02*
X-63930000Y14070000D01*
X-42000000Y35000000D02*
X-41000000Y34000000D01*
X-45000000Y35000000D02*
X-42000000Y35000000D01*
X-37160000Y30160000D02*
X-34000000Y30160000D01*
X-41000000Y34000000D02*
X-37160000Y30160000D01*
G04 #@! TO.N,GND*
X-63620000Y45700000D02*
X-68000000Y50080000D01*
X-63620000Y35000000D02*
X-63620000Y45700000D01*
X-63620000Y28770000D02*
X-63900000Y28490000D01*
X-63620000Y35000000D02*
X-63620000Y28770000D01*
X-63620000Y35000000D02*
X-61080000Y35000000D01*
X-63900000Y27412370D02*
X-62487630Y26000000D01*
X-63900000Y28490000D02*
X-63900000Y27412370D01*
X-62487630Y26000000D02*
X-55000000Y26000000D01*
X-53740000Y27260000D02*
X-53740000Y28490000D01*
X-55000000Y26000000D02*
X-53740000Y27260000D01*
X-62487630Y26000000D02*
X-66000000Y22487630D01*
X-66000000Y10000000D02*
X-68000000Y8000000D01*
X-66000000Y22487630D02*
X-66000000Y10000000D01*
X-69010000Y6547630D02*
X-69010000Y5470000D01*
X-69010000Y7750000D02*
X-69010000Y6547630D01*
X-68760000Y8000000D02*
X-69010000Y7750000D01*
X-68000000Y8000000D02*
X-68760000Y8000000D01*
X-53740000Y31340000D02*
X-53740000Y28490000D01*
X-50080000Y35000000D02*
X-53740000Y31340000D01*
X-50080000Y35000000D02*
X-50080000Y36920000D01*
X-49000000Y38000000D02*
X-47160000Y38000000D01*
X-50080000Y36920000D02*
X-49000000Y38000000D01*
X-36799999Y34799999D02*
X-36000000Y34000000D01*
X-38100001Y36100001D02*
X-36799999Y34799999D01*
X-40554403Y36100001D02*
X-38100001Y36100001D01*
X-42454402Y38000000D02*
X-40554403Y36100001D01*
X-47160000Y38000000D02*
X-42454402Y38000000D01*
X-36200001Y34799999D02*
X-36799999Y34799999D01*
X-66699999Y14496001D02*
X-66699999Y9895999D01*
X-42199991Y40199991D02*
X-52745589Y40199991D01*
X-52745589Y28450411D02*
X-66699999Y14496001D01*
X-52745589Y40199991D02*
X-52745589Y28450411D01*
X-36000000Y34000000D02*
X-42199991Y40199991D01*
X-26573991Y44253991D02*
X-26320000Y44000000D01*
X-27091607Y44253991D02*
X-26573991Y44253991D01*
X-35200001Y36145597D02*
X-27091607Y44253991D01*
X-35200001Y34799999D02*
X-35200001Y36145597D01*
X-36000000Y34000000D02*
X-35200001Y34799999D01*
X-15300000Y39180000D02*
X-12760000Y39180000D01*
X-16840000Y36891998D02*
X-16840000Y37640000D01*
X-18452009Y35279989D02*
X-16840000Y36891998D01*
X-20307991Y35279989D02*
X-18452009Y35279989D01*
X-16840000Y37640000D02*
X-15300000Y39180000D01*
X-24765921Y41379604D02*
X-24765921Y39737919D01*
X-24765921Y39737919D02*
X-20307991Y35279989D01*
X-29270000Y22670000D02*
X-26730000Y20130000D01*
X-29270000Y23940000D02*
X-29270000Y22670000D01*
X-21650000Y20130000D02*
X-26730000Y20130000D01*
X-29270000Y30991998D02*
X-29270000Y23940000D01*
X-24765921Y39737919D02*
X-24765921Y35496077D01*
X-24765921Y35496077D02*
X-29270000Y30991998D01*
X-26320000Y42933683D02*
X-24765921Y41379604D01*
X-26320000Y42933683D02*
X-26320000Y44000000D01*
G04 #@! TO.N,Net-(F1-Pad1)*
X-63190000Y53190000D02*
X-74000000Y53190000D01*
X-37000000Y42000000D02*
X-52000000Y42000000D01*
X-52000000Y42000000D02*
X-63190000Y53190000D01*
G04 #@! TO.N,Net-(F1-Pad2)*
X-37000000Y58000000D02*
X-37000000Y54700000D01*
X-36000000Y59000000D02*
X-37000000Y58000000D01*
X-27798680Y59000000D02*
X-36000000Y59000000D01*
X-25920000Y55000000D02*
X-25920000Y57121320D01*
X-25920000Y57121320D02*
X-27798680Y59000000D01*
G04 #@! TO.N,+5V*
X-69449989Y1607989D02*
X-42712011Y1607989D01*
X-71550000Y5470000D02*
X-71550000Y3708000D01*
X-71550000Y3708000D02*
X-69449989Y1607989D01*
X-29270000Y15050000D02*
X-21650000Y15050000D01*
X-42712011Y1607989D02*
X-29270000Y15050000D01*
X-19499999Y22020001D02*
X-19499999Y15997920D01*
X-21419998Y23940000D02*
X-19499999Y22020001D01*
X-25460000Y23940000D02*
X-21419998Y23940000D01*
X-26730000Y25210000D02*
X-25460000Y23940000D01*
X-26730000Y30986400D02*
X-26730000Y25210000D01*
X-24236421Y33479979D02*
X-26730000Y30986400D01*
X-20447919Y15050000D02*
X-21650000Y15050000D01*
X-19380000Y40000000D02*
X-18099999Y41280001D01*
X-18099999Y41280001D02*
X-11751999Y41280001D01*
X-19499999Y15997920D02*
X-20447919Y15050000D01*
X-11751999Y41280001D02*
X-10659999Y40188001D01*
X-10659999Y40188001D02*
X-10659999Y38171999D01*
X-10659999Y38171999D02*
X-15352019Y33479979D01*
X-15352019Y33479979D02*
X-24236421Y33479979D01*
X-74000000Y32300000D02*
X-74000000Y13454402D01*
X-71550000Y11004402D02*
X-71550000Y5470000D01*
X-74000000Y13454402D02*
X-71550000Y11004402D01*
G04 #@! TO.N,Net-(F2-Pad1)*
X-68000000Y45000000D02*
X-74000000Y45000000D01*
G04 #@! TO.N,Net-(J1-Pad1)*
X-56000000Y28770000D02*
X-56280000Y28490000D01*
X-56000000Y35000000D02*
X-56000000Y28770000D01*
G04 #@! TO.N,Net-(J1-Pad2)*
X-58540000Y28770000D02*
X-58820000Y28490000D01*
X-58540000Y35000000D02*
X-58540000Y28770000D01*
G04 #@! TO.N,Net-(J1-Pad5)*
X-66160000Y28770000D02*
X-66440000Y28490000D01*
X-66160000Y35000000D02*
X-66160000Y28770000D01*
G04 #@! TO.N,Earth*
X-5600000Y57121320D02*
X-5600000Y55000000D01*
X-6478680Y58000000D02*
X-5600000Y57121320D01*
X-19961320Y58000000D02*
X-6478680Y58000000D01*
X-20840000Y57121320D02*
X-19961320Y58000000D01*
X-20840000Y55000000D02*
X-20840000Y57121320D01*
X-2600000Y52000000D02*
X-5600000Y55000000D01*
X-2600000Y39180000D02*
X-2600000Y52000000D01*
G04 #@! TO.N,Net-(J2-Pad1)*
X-15760000Y51240000D02*
X-15760000Y55000000D01*
X-17000000Y50000000D02*
X-15760000Y51240000D01*
X-28500000Y50000000D02*
X-17000000Y50000000D01*
X-31000000Y52500000D02*
X-28500000Y50000000D01*
X-31000000Y55000000D02*
X-31000000Y52500000D01*
X-32920000Y50080000D02*
X-41330000Y50080000D01*
X-31000000Y52500000D02*
X-31000000Y52000000D01*
X-31000000Y52000000D02*
X-32920000Y50080000D01*
G04 #@! TO.N,Net-(J2-Pad5)*
X-9840000Y54160000D02*
X-10680000Y55000000D01*
X-10680000Y55000000D02*
X-10680000Y49680000D01*
X-6000000Y45754000D02*
X-6000000Y44000000D01*
X-9926000Y49680000D02*
X-6000000Y45754000D01*
X-10680000Y49680000D02*
X-9926000Y49680000D01*
G04 #@! TO.N,Net-(K1-Pad3)*
X-23780000Y45066317D02*
X-23780000Y44000000D01*
X-24767684Y46054001D02*
X-23780000Y45066317D01*
X-29945999Y46054001D02*
X-24767684Y46054001D01*
X-19942404Y37460000D02*
X-19380000Y37460000D01*
X-22389990Y39907586D02*
X-19942404Y37460000D01*
X-22389990Y42609990D02*
X-22389990Y39907586D01*
X-23780000Y44000000D02*
X-22389990Y42609990D01*
X-31740000Y44151998D02*
X-31740000Y44260000D01*
X-37000000Y38891998D02*
X-31740000Y44151998D01*
X-37000000Y38000000D02*
X-37000000Y38891998D01*
X-32000000Y44000000D02*
X-31740000Y44260000D01*
X-31740000Y44260000D02*
X-29945999Y46054001D01*
G04 #@! TO.N,Net-(PIR1-Pad2)*
X-31810000Y17590000D02*
X-21650000Y17590000D01*
X-45992001Y3407999D02*
X-31810000Y17590000D01*
X-57865629Y3407999D02*
X-45992001Y3407999D01*
X-58850000Y5470000D02*
X-58850000Y4392370D01*
X-58850000Y4392370D02*
X-57865629Y3407999D01*
G04 #@! TO.N,+3V3*
X-71520000Y28490000D02*
X-71520000Y13520000D01*
X-71520000Y13520000D02*
X-69000000Y11000000D01*
X-49000000Y20000000D02*
X-58000000Y11000000D01*
X-34000000Y20000000D02*
X-49000000Y20000000D01*
G04 #@! TO.N,Net-(R4-Pad1)*
X-27000000Y36370000D02*
X-29270000Y34100000D01*
X-27000000Y37460000D02*
X-27000000Y36370000D01*
G04 #@! TO.N,Net-(U1-Pad15)*
X-56310000Y6547630D02*
X-56310000Y5470000D01*
X-57762370Y8000000D02*
X-56310000Y6547630D01*
X-61000000Y12454402D02*
X-61000000Y8000000D01*
X-51454402Y22000000D02*
X-61000000Y12454402D01*
X-42000000Y22000000D02*
X-51454402Y22000000D01*
X-34571998Y26480000D02*
X-37520000Y26480000D01*
X-61000000Y8000000D02*
X-57762370Y8000000D01*
X-37520000Y26480000D02*
X-42000000Y22000000D01*
X-28800000Y40000000D02*
X-27000000Y40000000D01*
X-31899999Y36900001D02*
X-28800000Y40000000D01*
X-31899999Y29151999D02*
X-31899999Y36900001D01*
X-34571998Y26480000D02*
X-31899999Y29151999D01*
G04 #@! TO.N,Net-(K1-Pad2)*
X-41330000Y45000000D02*
X-41000000Y45000000D01*
X-74000000Y58270000D02*
X-62330000Y58270000D01*
X-49060000Y45000000D02*
X-41330000Y45000000D01*
X-62330000Y58270000D02*
X-49060000Y45000000D01*
X-41330000Y45000000D02*
X-36150000Y45000000D01*
X-14373999Y44753999D02*
X-13620000Y44000000D01*
X-17474011Y47854011D02*
X-14373999Y44753999D01*
X-33295989Y47854011D02*
X-17474011Y47854011D01*
X-36150000Y45000000D02*
X-33295989Y47854011D01*
G04 #@! TD*
D24*
G04 #@! TO.N,GND*
G36*
X-1127000Y40136732D02*
X-1135920Y40158267D01*
X-1173000Y40195347D01*
X-1173000Y51859460D01*
X-1145045Y52000000D01*
X-1173000Y52140540D01*
X-1173000Y52140544D01*
X-1255796Y52556788D01*
X-1571191Y53028809D01*
X-1690337Y53108420D01*
X-3173000Y54591082D01*
X-3173000Y55482760D01*
X-3542489Y56374785D01*
X-4168933Y57001229D01*
X-4145045Y57121321D01*
X-4173000Y57261863D01*
X-4173000Y57261864D01*
X-4255796Y57678108D01*
X-4571192Y58150129D01*
X-4690341Y58229742D01*
X-5370256Y58909657D01*
X-5449871Y59028809D01*
X-5921892Y59344204D01*
X-6338136Y59427000D01*
X-6338140Y59427000D01*
X-6478680Y59454955D01*
X-6619220Y59427000D01*
X-19820780Y59427000D01*
X-19961321Y59454955D01*
X-20101861Y59427000D01*
X-20101864Y59427000D01*
X-20518108Y59344204D01*
X-20990129Y59028809D01*
X-21069744Y58909657D01*
X-21749659Y58229742D01*
X-21868808Y58150129D01*
X-21948420Y58030981D01*
X-22184204Y57678107D01*
X-22294955Y57121320D01*
X-22271067Y57001229D01*
X-22897511Y56374785D01*
X-23267000Y55482760D01*
X-23267000Y54517240D01*
X-22897511Y53625215D01*
X-22214785Y52942489D01*
X-21322760Y52573000D01*
X-20357240Y52573000D01*
X-19465215Y52942489D01*
X-18782489Y53625215D01*
X-18413000Y54517240D01*
X-18413000Y55482760D01*
X-18782489Y56374785D01*
X-18980704Y56573000D01*
X-17619296Y56573000D01*
X-17817511Y56374785D01*
X-18187000Y55482760D01*
X-18187000Y54517240D01*
X-17817511Y53625215D01*
X-17187000Y52994704D01*
X-17187000Y51831082D01*
X-17591082Y51427000D01*
X-27908917Y51427000D01*
X-29120559Y52638641D01*
X-28831670Y52831670D01*
X-28626785Y53138303D01*
X-28554839Y53500000D01*
X-28554839Y56500000D01*
X-28626785Y56861697D01*
X-28831670Y57168330D01*
X-29138303Y57373215D01*
X-29500000Y57445161D01*
X-32500000Y57445161D01*
X-32861697Y57373215D01*
X-33168330Y57168330D01*
X-33373215Y56861697D01*
X-33445161Y56500000D01*
X-33445161Y53500000D01*
X-33373215Y53138303D01*
X-33168330Y52831670D01*
X-32861697Y52626785D01*
X-32500000Y52554839D01*
X-32463243Y52554839D01*
X-33511081Y51507000D01*
X-39324704Y51507000D01*
X-39955215Y52137511D01*
X-40847240Y52507000D01*
X-41812760Y52507000D01*
X-42704785Y52137511D01*
X-43387511Y51454785D01*
X-43757000Y50562760D01*
X-43757000Y49597240D01*
X-43387511Y48705215D01*
X-42704785Y48022489D01*
X-41812760Y47653000D01*
X-40847240Y47653000D01*
X-39955215Y48022489D01*
X-39324704Y48653000D01*
X-34515082Y48653000D01*
X-36741081Y46427000D01*
X-38884839Y46427000D01*
X-38884839Y46500000D01*
X-38956785Y46861697D01*
X-39161670Y47168330D01*
X-39468303Y47373215D01*
X-39830000Y47445161D01*
X-42830000Y47445161D01*
X-43191697Y47373215D01*
X-43498330Y47168330D01*
X-43703215Y46861697D01*
X-43775161Y46500000D01*
X-43775161Y46427000D01*
X-48468917Y46427000D01*
X-56741918Y54700000D01*
X-38760833Y54700000D01*
X-38626798Y54026158D01*
X-38245097Y53454903D01*
X-37673842Y53073202D01*
X-37170091Y52973000D01*
X-36829909Y52973000D01*
X-36326158Y53073202D01*
X-35754903Y53454903D01*
X-35373202Y54026158D01*
X-35239167Y54700000D01*
X-35373202Y55373842D01*
X-35573000Y55672860D01*
X-35573000Y57408918D01*
X-35408918Y57573000D01*
X-28389761Y57573000D01*
X-27584529Y56767767D01*
X-27977511Y56374785D01*
X-28347000Y55482760D01*
X-28347000Y54517240D01*
X-27977511Y53625215D01*
X-27294785Y52942489D01*
X-26402760Y52573000D01*
X-25437240Y52573000D01*
X-24545215Y52942489D01*
X-23862489Y53625215D01*
X-23493000Y54517240D01*
X-23493000Y55482760D01*
X-23862489Y56374785D01*
X-24488933Y57001229D01*
X-24465045Y57121320D01*
X-24493000Y57261863D01*
X-24493000Y57261864D01*
X-24575796Y57678108D01*
X-24790877Y57999999D01*
X-24811579Y58030982D01*
X-24811580Y58030983D01*
X-24891191Y58150129D01*
X-25010338Y58229740D01*
X-26690256Y59909658D01*
X-26769871Y60028809D01*
X-27241892Y60344204D01*
X-27658136Y60427000D01*
X-27658140Y60427000D01*
X-27798680Y60454955D01*
X-27939220Y60427000D01*
X-35859460Y60427000D01*
X-36000000Y60454955D01*
X-36140540Y60427000D01*
X-36140544Y60427000D01*
X-36556788Y60344204D01*
X-36787125Y60190298D01*
X-36909662Y60108421D01*
X-36909663Y60108420D01*
X-37028809Y60028809D01*
X-37108421Y59909662D01*
X-37909660Y59108421D01*
X-38028809Y59028808D01*
X-38344204Y58556787D01*
X-38427000Y58140543D01*
X-38427000Y58140540D01*
X-38454955Y58000000D01*
X-38427000Y57859459D01*
X-38426999Y55672861D01*
X-38626798Y55373842D01*
X-38760833Y54700000D01*
X-56741918Y54700000D01*
X-61221576Y59179657D01*
X-61301191Y59298809D01*
X-61773212Y59614204D01*
X-62189456Y59697000D01*
X-62189460Y59697000D01*
X-62330000Y59724955D01*
X-62470540Y59697000D01*
X-71865640Y59697000D01*
X-71888615Y59731385D01*
X-72559104Y60179392D01*
X-73150359Y60297000D01*
X-74849641Y60297000D01*
X-75440896Y60179392D01*
X-76111385Y59731385D01*
X-76559392Y59060896D01*
X-76716711Y58270000D01*
X-76559392Y57479104D01*
X-76111385Y56808615D01*
X-75440896Y56360608D01*
X-74849641Y56243000D01*
X-73150359Y56243000D01*
X-72559104Y56360608D01*
X-71888615Y56808615D01*
X-71865640Y56843000D01*
X-62921081Y56843000D01*
X-50168420Y44090337D01*
X-50088809Y43971191D01*
X-49969663Y43891580D01*
X-49969662Y43891579D01*
X-49631503Y43665628D01*
X-49616788Y43655796D01*
X-49200544Y43573000D01*
X-49200541Y43573000D01*
X-49060000Y43545045D01*
X-48919460Y43573000D01*
X-43775161Y43573000D01*
X-43775161Y43500000D01*
X-43760640Y43427000D01*
X-51408917Y43427000D01*
X-62081576Y54099657D01*
X-62161191Y54218809D01*
X-62633212Y54534204D01*
X-63049456Y54617000D01*
X-63049460Y54617000D01*
X-63190000Y54644955D01*
X-63330540Y54617000D01*
X-71865640Y54617000D01*
X-71888615Y54651385D01*
X-72559104Y55099392D01*
X-73150359Y55217000D01*
X-74849641Y55217000D01*
X-75440896Y55099392D01*
X-76111385Y54651385D01*
X-76559392Y53980896D01*
X-76716711Y53190000D01*
X-76559392Y52399104D01*
X-76111385Y51728615D01*
X-75440896Y51280608D01*
X-74849641Y51163000D01*
X-73150359Y51163000D01*
X-72559104Y51280608D01*
X-71888615Y51728615D01*
X-71865640Y51763000D01*
X-63781081Y51763000D01*
X-53108420Y41090337D01*
X-53028809Y40971191D01*
X-52909663Y40891580D01*
X-52909662Y40891579D01*
X-52583796Y40673842D01*
X-52556788Y40655796D01*
X-52140544Y40573000D01*
X-52140541Y40573000D01*
X-52000000Y40545045D01*
X-51859460Y40573000D01*
X-38015347Y40573000D01*
X-37978267Y40535920D01*
X-37551098Y40358981D01*
X-37909659Y40000420D01*
X-38028808Y39920807D01*
X-38344204Y39448786D01*
X-38427000Y39032542D01*
X-38427000Y39032538D01*
X-38431269Y39011078D01*
X-38464080Y38978267D01*
X-38727000Y38343522D01*
X-38727000Y37656478D01*
X-38464080Y37021733D01*
X-37978267Y36535920D01*
X-37343522Y36273000D01*
X-36656478Y36273000D01*
X-36021733Y36535920D01*
X-35535920Y37021733D01*
X-35273000Y37656478D01*
X-35273000Y38343522D01*
X-35348389Y38525528D01*
X-30830335Y43043580D01*
X-30711192Y43123189D01*
X-30631582Y43242333D01*
X-30631580Y43242335D01*
X-30414095Y43567823D01*
X-29354917Y44627001D01*
X-25358765Y44627001D01*
X-25345347Y44613583D01*
X-25461000Y44334372D01*
X-25461000Y43665628D01*
X-25205083Y43047790D01*
X-24732210Y42574917D01*
X-24118997Y42320916D01*
X-23816990Y42018908D01*
X-23816989Y40048131D01*
X-23844945Y39907586D01*
X-23734194Y39350799D01*
X-23734193Y39350798D01*
X-23418798Y38878777D01*
X-23299649Y38799164D01*
X-21050826Y36550340D01*
X-20971213Y36431191D01*
X-20499192Y36115796D01*
X-20467270Y36109446D01*
X-20053842Y35833202D01*
X-19550091Y35733000D01*
X-19209909Y35733000D01*
X-18706158Y35833202D01*
X-18134903Y36214903D01*
X-17753202Y36786158D01*
X-17619167Y37460000D01*
X-17753202Y38133842D01*
X-18134903Y38705097D01*
X-18172173Y38730000D01*
X-18134903Y38754903D01*
X-17753202Y39326158D01*
X-17683042Y39678876D01*
X-17508917Y39853001D01*
X-12343080Y39853001D01*
X-12086999Y39596919D01*
X-12086998Y38763082D01*
X-15943100Y34906979D01*
X-24095881Y34906979D01*
X-24236422Y34934934D01*
X-24376962Y34906979D01*
X-24376965Y34906979D01*
X-24793209Y34824183D01*
X-25265230Y34508788D01*
X-25344842Y34389640D01*
X-27639660Y32094822D01*
X-27758809Y32015208D01*
X-28074204Y31543187D01*
X-28157000Y31126943D01*
X-28157000Y31126940D01*
X-28184955Y30986400D01*
X-28157000Y30845859D01*
X-28156999Y25350545D01*
X-28184955Y25210000D01*
X-28074204Y24653213D01*
X-28074203Y24653212D01*
X-27758808Y24181191D01*
X-27639659Y24101578D01*
X-26568422Y23030340D01*
X-26488809Y22911191D01*
X-26016788Y22595796D01*
X-25600544Y22513000D01*
X-25600541Y22513000D01*
X-25460001Y22485045D01*
X-25319460Y22513000D01*
X-22011079Y22513000D01*
X-20926999Y21428918D01*
X-20926999Y19244085D01*
X-20956649Y19263897D01*
X-21474983Y19367000D01*
X-21825017Y19367000D01*
X-22343351Y19263897D01*
X-22712858Y19017000D01*
X-31669460Y19017000D01*
X-31810001Y19044955D01*
X-31950541Y19017000D01*
X-31950544Y19017000D01*
X-32366788Y18934204D01*
X-32838809Y18618809D01*
X-32918422Y18499660D01*
X-46583082Y4834999D01*
X-52204866Y4834999D01*
X-52081000Y5134037D01*
X-52081000Y5805963D01*
X-52338135Y6426741D01*
X-52813259Y6901865D01*
X-53434037Y7159000D01*
X-54105963Y7159000D01*
X-54726741Y6901865D01*
X-54892529Y6736077D01*
X-54965796Y7104418D01*
X-55002267Y7159000D01*
X-55201580Y7457293D01*
X-55201582Y7457295D01*
X-55281192Y7576439D01*
X-55400336Y7656048D01*
X-56653947Y8909658D01*
X-56733561Y9028809D01*
X-57112349Y9281907D01*
X-56908442Y9366368D01*
X-56366368Y9908442D01*
X-56073000Y10616696D01*
X-56073000Y10908919D01*
X-48408918Y18573000D01*
X-35015347Y18573000D01*
X-34978267Y18535920D01*
X-34343522Y18273000D01*
X-33656478Y18273000D01*
X-33021733Y18535920D01*
X-32535920Y19021733D01*
X-32273000Y19656478D01*
X-32273000Y20343522D01*
X-32535920Y20978267D01*
X-33021733Y21464080D01*
X-33656478Y21727000D01*
X-34343522Y21727000D01*
X-34978267Y21464080D01*
X-35015347Y21427000D01*
X-40554919Y21427000D01*
X-36928917Y25053000D01*
X-34712538Y25053000D01*
X-34571998Y25025045D01*
X-34431458Y25053000D01*
X-34431454Y25053000D01*
X-34015210Y25135796D01*
X-33543189Y25451191D01*
X-33463574Y25570343D01*
X-30990337Y28043579D01*
X-30871191Y28123190D01*
X-30555795Y28595211D01*
X-30472999Y29011455D01*
X-30472999Y29011458D01*
X-30445044Y29151998D01*
X-30472999Y29292539D01*
X-30472999Y32860652D01*
X-30248267Y32635920D01*
X-29613522Y32373000D01*
X-28926478Y32373000D01*
X-28291733Y32635920D01*
X-27805920Y33121733D01*
X-27543000Y33756478D01*
X-27543000Y33808918D01*
X-26090337Y35261580D01*
X-25971191Y35341191D01*
X-25873016Y35488119D01*
X-25655796Y35813212D01*
X-25617638Y36005045D01*
X-25573000Y36229456D01*
X-25573000Y36229459D01*
X-25545045Y36370000D01*
X-25569413Y36492508D01*
X-25373202Y36786158D01*
X-25239167Y37460000D01*
X-25373202Y38133842D01*
X-25605887Y38482080D01*
X-25531670Y38531670D01*
X-25326785Y38838303D01*
X-25254839Y39200000D01*
X-25254839Y40800000D01*
X-25326785Y41161697D01*
X-25531670Y41468330D01*
X-25838303Y41673215D01*
X-26200000Y41745161D01*
X-27800000Y41745161D01*
X-28161697Y41673215D01*
X-28468330Y41468330D01*
X-28495946Y41427000D01*
X-28659460Y41427000D01*
X-28800000Y41454955D01*
X-28940540Y41427000D01*
X-28940544Y41427000D01*
X-29356788Y41344204D01*
X-29547446Y41216810D01*
X-29709662Y41108421D01*
X-29709663Y41108420D01*
X-29828809Y41028809D01*
X-29908420Y40909663D01*
X-32809658Y38008423D01*
X-32928807Y37928810D01*
X-33008419Y37809662D01*
X-33244203Y37456788D01*
X-33354954Y36900001D01*
X-33326998Y36759456D01*
X-33326999Y31786965D01*
X-33829909Y31887000D01*
X-34170091Y31887000D01*
X-34673842Y31786798D01*
X-34972860Y31587000D01*
X-36568918Y31587000D01*
X-39273000Y34291081D01*
X-39273000Y34343522D01*
X-39535920Y34978267D01*
X-40021733Y35464080D01*
X-40656478Y35727000D01*
X-40708918Y35727000D01*
X-40891577Y35909658D01*
X-40971191Y36028809D01*
X-41443212Y36344204D01*
X-41859456Y36427000D01*
X-41859460Y36427000D01*
X-42000000Y36454955D01*
X-42140540Y36427000D01*
X-43984653Y36427000D01*
X-44021733Y36464080D01*
X-44656478Y36727000D01*
X-45343522Y36727000D01*
X-45978267Y36464080D01*
X-46464080Y35978267D01*
X-46727000Y35343522D01*
X-46727000Y35296835D01*
X-46828808Y35228809D01*
X-47144203Y34756788D01*
X-47226999Y34340544D01*
X-47226999Y34340541D01*
X-47254954Y34200001D01*
X-47226999Y34059460D01*
X-47226998Y32791084D01*
X-64839659Y15178422D01*
X-64958809Y15098808D01*
X-65274204Y14626787D01*
X-65357000Y14210543D01*
X-65357000Y14210540D01*
X-65384955Y14070000D01*
X-65357000Y13929460D01*
X-65356999Y6745605D01*
X-65513259Y6901865D01*
X-66134037Y7159000D01*
X-66805963Y7159000D01*
X-67426741Y6901865D01*
X-67901865Y6426741D01*
X-68159000Y5805963D01*
X-68159000Y5134037D01*
X-67901865Y4513259D01*
X-67426741Y4038135D01*
X-66805963Y3781000D01*
X-66134037Y3781000D01*
X-65513259Y4038135D01*
X-65200000Y4351394D01*
X-64886741Y4038135D01*
X-64265963Y3781000D01*
X-63594037Y3781000D01*
X-62973259Y4038135D01*
X-62660000Y4351394D01*
X-62346741Y4038135D01*
X-61725963Y3781000D01*
X-61054037Y3781000D01*
X-60433259Y4038135D01*
X-60267471Y4203923D01*
X-60194204Y3835582D01*
X-59878808Y3363561D01*
X-59759660Y3283949D01*
X-59510701Y3034989D01*
X-68858907Y3034989D01*
X-70017098Y4193180D01*
X-69914785Y4346303D01*
X-69842839Y4708000D01*
X-69842839Y6232000D01*
X-69914785Y6593697D01*
X-70119670Y6900330D01*
X-70123000Y6902555D01*
X-70123000Y9397810D01*
X-70091558Y9366368D01*
X-69383304Y9073000D01*
X-68616696Y9073000D01*
X-67908442Y9366368D01*
X-67366368Y9908442D01*
X-67073000Y10616696D01*
X-67073000Y11383304D01*
X-67366368Y12091558D01*
X-67908442Y12633632D01*
X-68616696Y12927000D01*
X-68908918Y12927000D01*
X-70093000Y14111081D01*
X-70093000Y27057445D01*
X-70089670Y27059670D01*
X-70029030Y27150424D01*
X-69936741Y27058135D01*
X-69315963Y26801000D01*
X-68644037Y26801000D01*
X-68023259Y27058135D01*
X-67710000Y27371394D01*
X-67396741Y27058135D01*
X-66775963Y26801000D01*
X-66104037Y26801000D01*
X-65483259Y27058135D01*
X-65008135Y27533259D01*
X-64751000Y28154037D01*
X-64751000Y28538964D01*
X-64733000Y28629456D01*
X-64733000Y28629460D01*
X-64705045Y28770000D01*
X-64716176Y28825963D01*
X-63049000Y28825963D01*
X-63049000Y28154037D01*
X-62791865Y27533259D01*
X-62316741Y27058135D01*
X-61695963Y26801000D01*
X-61024037Y26801000D01*
X-60403259Y27058135D01*
X-60090000Y27371394D01*
X-59776741Y27058135D01*
X-59155963Y26801000D01*
X-58484037Y26801000D01*
X-57863259Y27058135D01*
X-57550000Y27371394D01*
X-57236741Y27058135D01*
X-56615963Y26801000D01*
X-55944037Y26801000D01*
X-55323259Y27058135D01*
X-54848135Y27533259D01*
X-54591000Y28154037D01*
X-54591000Y28538964D01*
X-54573000Y28629456D01*
X-54573000Y28629460D01*
X-54545045Y28770000D01*
X-54573000Y28910540D01*
X-54573000Y33420645D01*
X-54481670Y33481670D01*
X-54276785Y33788303D01*
X-54204839Y34150000D01*
X-54204839Y35850000D01*
X-54276785Y36211697D01*
X-54481670Y36518330D01*
X-54788303Y36723215D01*
X-55150000Y36795161D01*
X-56850000Y36795161D01*
X-57211697Y36723215D01*
X-57518330Y36518330D01*
X-57547806Y36474216D01*
X-57846649Y36673897D01*
X-58364983Y36777000D01*
X-58715017Y36777000D01*
X-59233351Y36673897D01*
X-59821145Y36281145D01*
X-60213897Y35693351D01*
X-60351813Y35000000D01*
X-60213897Y34306649D01*
X-59967000Y33937142D01*
X-59966999Y29731607D01*
X-60090000Y29608606D01*
X-60403259Y29921865D01*
X-61024037Y30179000D01*
X-61695963Y30179000D01*
X-62316741Y29921865D01*
X-62791865Y29446741D01*
X-63049000Y28825963D01*
X-64716176Y28825963D01*
X-64733000Y28910540D01*
X-64733000Y33937142D01*
X-64486103Y34306649D01*
X-64348187Y35000000D01*
X-64486103Y35693351D01*
X-64878855Y36281145D01*
X-65466649Y36673897D01*
X-65984983Y36777000D01*
X-66335017Y36777000D01*
X-66853351Y36673897D01*
X-67441145Y36281145D01*
X-67833897Y35693351D01*
X-67971813Y35000000D01*
X-67833897Y34306649D01*
X-67587000Y33937142D01*
X-67586999Y29731607D01*
X-67710000Y29608606D01*
X-68023259Y29921865D01*
X-68644037Y30179000D01*
X-69315963Y30179000D01*
X-69936741Y29921865D01*
X-70029030Y29829576D01*
X-70089670Y29920330D01*
X-70396303Y30125215D01*
X-70758000Y30197161D01*
X-72282000Y30197161D01*
X-72573000Y30139278D01*
X-72573000Y31327140D01*
X-72373202Y31626158D01*
X-72239167Y32300000D01*
X-72373202Y32973842D01*
X-72754903Y33545097D01*
X-73326158Y33926798D01*
X-73829909Y34027000D01*
X-74170091Y34027000D01*
X-74673842Y33926798D01*
X-75245097Y33545097D01*
X-75626798Y32973842D01*
X-75760833Y32300000D01*
X-75626798Y31626158D01*
X-75427000Y31327140D01*
X-75426999Y13594947D01*
X-75454955Y13454402D01*
X-75344204Y12897615D01*
X-75344203Y12897614D01*
X-75028808Y12425593D01*
X-74909659Y12345980D01*
X-73087431Y10523751D01*
X-73336696Y10627000D01*
X-74103304Y10627000D01*
X-74811558Y10333632D01*
X-75353632Y9791558D01*
X-75647000Y9083304D01*
X-75647000Y8316696D01*
X-75353632Y7608442D01*
X-74811558Y7066368D01*
X-74103304Y6773000D01*
X-73336696Y6773000D01*
X-72976999Y6921991D01*
X-72976999Y6902556D01*
X-72980330Y6900330D01*
X-73185215Y6593697D01*
X-73257161Y6232000D01*
X-73257161Y4708000D01*
X-73185215Y4346303D01*
X-72980330Y4039670D01*
X-72976999Y4037444D01*
X-72976999Y3848545D01*
X-73004955Y3708000D01*
X-72894204Y3151213D01*
X-72894203Y3151212D01*
X-72578808Y2679191D01*
X-72459659Y2599578D01*
X-70987082Y1127000D01*
X-76873000Y1127000D01*
X-76873000Y48110000D01*
X-76716711Y48110000D01*
X-76559392Y47319104D01*
X-76111385Y46648615D01*
X-75440896Y46200608D01*
X-75274781Y46167566D01*
X-75464080Y45978267D01*
X-75727000Y45343522D01*
X-75727000Y44656478D01*
X-75464080Y44021733D01*
X-74978267Y43535920D01*
X-74343522Y43273000D01*
X-73656478Y43273000D01*
X-73021733Y43535920D01*
X-72984653Y43573000D01*
X-70005296Y43573000D01*
X-69374785Y42942489D01*
X-68482760Y42573000D01*
X-67517240Y42573000D01*
X-66625215Y42942489D01*
X-65942489Y43625215D01*
X-65573000Y44517240D01*
X-65573000Y45482760D01*
X-65942489Y46374785D01*
X-66625215Y47057511D01*
X-67517240Y47427000D01*
X-68482760Y47427000D01*
X-69374785Y47057511D01*
X-70005296Y46427000D01*
X-72220285Y46427000D01*
X-71888615Y46648615D01*
X-71440608Y47319104D01*
X-71283289Y48110000D01*
X-71440608Y48900896D01*
X-71888615Y49571385D01*
X-72559104Y50019392D01*
X-73150359Y50137000D01*
X-74849641Y50137000D01*
X-75440896Y50019392D01*
X-76111385Y49571385D01*
X-76559392Y48900896D01*
X-76716711Y48110000D01*
X-76873000Y48110000D01*
X-76873000Y60873000D01*
X-1127000Y60873000D01*
X-1127000Y40136732D01*
X-1127000Y40136732D01*
G37*
X-1127000Y40136732D02*
X-1135920Y40158267D01*
X-1173000Y40195347D01*
X-1173000Y51859460D01*
X-1145045Y52000000D01*
X-1173000Y52140540D01*
X-1173000Y52140544D01*
X-1255796Y52556788D01*
X-1571191Y53028809D01*
X-1690337Y53108420D01*
X-3173000Y54591082D01*
X-3173000Y55482760D01*
X-3542489Y56374785D01*
X-4168933Y57001229D01*
X-4145045Y57121321D01*
X-4173000Y57261863D01*
X-4173000Y57261864D01*
X-4255796Y57678108D01*
X-4571192Y58150129D01*
X-4690341Y58229742D01*
X-5370256Y58909657D01*
X-5449871Y59028809D01*
X-5921892Y59344204D01*
X-6338136Y59427000D01*
X-6338140Y59427000D01*
X-6478680Y59454955D01*
X-6619220Y59427000D01*
X-19820780Y59427000D01*
X-19961321Y59454955D01*
X-20101861Y59427000D01*
X-20101864Y59427000D01*
X-20518108Y59344204D01*
X-20990129Y59028809D01*
X-21069744Y58909657D01*
X-21749659Y58229742D01*
X-21868808Y58150129D01*
X-21948420Y58030981D01*
X-22184204Y57678107D01*
X-22294955Y57121320D01*
X-22271067Y57001229D01*
X-22897511Y56374785D01*
X-23267000Y55482760D01*
X-23267000Y54517240D01*
X-22897511Y53625215D01*
X-22214785Y52942489D01*
X-21322760Y52573000D01*
X-20357240Y52573000D01*
X-19465215Y52942489D01*
X-18782489Y53625215D01*
X-18413000Y54517240D01*
X-18413000Y55482760D01*
X-18782489Y56374785D01*
X-18980704Y56573000D01*
X-17619296Y56573000D01*
X-17817511Y56374785D01*
X-18187000Y55482760D01*
X-18187000Y54517240D01*
X-17817511Y53625215D01*
X-17187000Y52994704D01*
X-17187000Y51831082D01*
X-17591082Y51427000D01*
X-27908917Y51427000D01*
X-29120559Y52638641D01*
X-28831670Y52831670D01*
X-28626785Y53138303D01*
X-28554839Y53500000D01*
X-28554839Y56500000D01*
X-28626785Y56861697D01*
X-28831670Y57168330D01*
X-29138303Y57373215D01*
X-29500000Y57445161D01*
X-32500000Y57445161D01*
X-32861697Y57373215D01*
X-33168330Y57168330D01*
X-33373215Y56861697D01*
X-33445161Y56500000D01*
X-33445161Y53500000D01*
X-33373215Y53138303D01*
X-33168330Y52831670D01*
X-32861697Y52626785D01*
X-32500000Y52554839D01*
X-32463243Y52554839D01*
X-33511081Y51507000D01*
X-39324704Y51507000D01*
X-39955215Y52137511D01*
X-40847240Y52507000D01*
X-41812760Y52507000D01*
X-42704785Y52137511D01*
X-43387511Y51454785D01*
X-43757000Y50562760D01*
X-43757000Y49597240D01*
X-43387511Y48705215D01*
X-42704785Y48022489D01*
X-41812760Y47653000D01*
X-40847240Y47653000D01*
X-39955215Y48022489D01*
X-39324704Y48653000D01*
X-34515082Y48653000D01*
X-36741081Y46427000D01*
X-38884839Y46427000D01*
X-38884839Y46500000D01*
X-38956785Y46861697D01*
X-39161670Y47168330D01*
X-39468303Y47373215D01*
X-39830000Y47445161D01*
X-42830000Y47445161D01*
X-43191697Y47373215D01*
X-43498330Y47168330D01*
X-43703215Y46861697D01*
X-43775161Y46500000D01*
X-43775161Y46427000D01*
X-48468917Y46427000D01*
X-56741918Y54700000D01*
X-38760833Y54700000D01*
X-38626798Y54026158D01*
X-38245097Y53454903D01*
X-37673842Y53073202D01*
X-37170091Y52973000D01*
X-36829909Y52973000D01*
X-36326158Y53073202D01*
X-35754903Y53454903D01*
X-35373202Y54026158D01*
X-35239167Y54700000D01*
X-35373202Y55373842D01*
X-35573000Y55672860D01*
X-35573000Y57408918D01*
X-35408918Y57573000D01*
X-28389761Y57573000D01*
X-27584529Y56767767D01*
X-27977511Y56374785D01*
X-28347000Y55482760D01*
X-28347000Y54517240D01*
X-27977511Y53625215D01*
X-27294785Y52942489D01*
X-26402760Y52573000D01*
X-25437240Y52573000D01*
X-24545215Y52942489D01*
X-23862489Y53625215D01*
X-23493000Y54517240D01*
X-23493000Y55482760D01*
X-23862489Y56374785D01*
X-24488933Y57001229D01*
X-24465045Y57121320D01*
X-24493000Y57261863D01*
X-24493000Y57261864D01*
X-24575796Y57678108D01*
X-24790877Y57999999D01*
X-24811579Y58030982D01*
X-24811580Y58030983D01*
X-24891191Y58150129D01*
X-25010338Y58229740D01*
X-26690256Y59909658D01*
X-26769871Y60028809D01*
X-27241892Y60344204D01*
X-27658136Y60427000D01*
X-27658140Y60427000D01*
X-27798680Y60454955D01*
X-27939220Y60427000D01*
X-35859460Y60427000D01*
X-36000000Y60454955D01*
X-36140540Y60427000D01*
X-36140544Y60427000D01*
X-36556788Y60344204D01*
X-36787125Y60190298D01*
X-36909662Y60108421D01*
X-36909663Y60108420D01*
X-37028809Y60028809D01*
X-37108421Y59909662D01*
X-37909660Y59108421D01*
X-38028809Y59028808D01*
X-38344204Y58556787D01*
X-38427000Y58140543D01*
X-38427000Y58140540D01*
X-38454955Y58000000D01*
X-38427000Y57859459D01*
X-38426999Y55672861D01*
X-38626798Y55373842D01*
X-38760833Y54700000D01*
X-56741918Y54700000D01*
X-61221576Y59179657D01*
X-61301191Y59298809D01*
X-61773212Y59614204D01*
X-62189456Y59697000D01*
X-62189460Y59697000D01*
X-62330000Y59724955D01*
X-62470540Y59697000D01*
X-71865640Y59697000D01*
X-71888615Y59731385D01*
X-72559104Y60179392D01*
X-73150359Y60297000D01*
X-74849641Y60297000D01*
X-75440896Y60179392D01*
X-76111385Y59731385D01*
X-76559392Y59060896D01*
X-76716711Y58270000D01*
X-76559392Y57479104D01*
X-76111385Y56808615D01*
X-75440896Y56360608D01*
X-74849641Y56243000D01*
X-73150359Y56243000D01*
X-72559104Y56360608D01*
X-71888615Y56808615D01*
X-71865640Y56843000D01*
X-62921081Y56843000D01*
X-50168420Y44090337D01*
X-50088809Y43971191D01*
X-49969663Y43891580D01*
X-49969662Y43891579D01*
X-49631503Y43665628D01*
X-49616788Y43655796D01*
X-49200544Y43573000D01*
X-49200541Y43573000D01*
X-49060000Y43545045D01*
X-48919460Y43573000D01*
X-43775161Y43573000D01*
X-43775161Y43500000D01*
X-43760640Y43427000D01*
X-51408917Y43427000D01*
X-62081576Y54099657D01*
X-62161191Y54218809D01*
X-62633212Y54534204D01*
X-63049456Y54617000D01*
X-63049460Y54617000D01*
X-63190000Y54644955D01*
X-63330540Y54617000D01*
X-71865640Y54617000D01*
X-71888615Y54651385D01*
X-72559104Y55099392D01*
X-73150359Y55217000D01*
X-74849641Y55217000D01*
X-75440896Y55099392D01*
X-76111385Y54651385D01*
X-76559392Y53980896D01*
X-76716711Y53190000D01*
X-76559392Y52399104D01*
X-76111385Y51728615D01*
X-75440896Y51280608D01*
X-74849641Y51163000D01*
X-73150359Y51163000D01*
X-72559104Y51280608D01*
X-71888615Y51728615D01*
X-71865640Y51763000D01*
X-63781081Y51763000D01*
X-53108420Y41090337D01*
X-53028809Y40971191D01*
X-52909663Y40891580D01*
X-52909662Y40891579D01*
X-52583796Y40673842D01*
X-52556788Y40655796D01*
X-52140544Y40573000D01*
X-52140541Y40573000D01*
X-52000000Y40545045D01*
X-51859460Y40573000D01*
X-38015347Y40573000D01*
X-37978267Y40535920D01*
X-37551098Y40358981D01*
X-37909659Y40000420D01*
X-38028808Y39920807D01*
X-38344204Y39448786D01*
X-38427000Y39032542D01*
X-38427000Y39032538D01*
X-38431269Y39011078D01*
X-38464080Y38978267D01*
X-38727000Y38343522D01*
X-38727000Y37656478D01*
X-38464080Y37021733D01*
X-37978267Y36535920D01*
X-37343522Y36273000D01*
X-36656478Y36273000D01*
X-36021733Y36535920D01*
X-35535920Y37021733D01*
X-35273000Y37656478D01*
X-35273000Y38343522D01*
X-35348389Y38525528D01*
X-30830335Y43043580D01*
X-30711192Y43123189D01*
X-30631582Y43242333D01*
X-30631580Y43242335D01*
X-30414095Y43567823D01*
X-29354917Y44627001D01*
X-25358765Y44627001D01*
X-25345347Y44613583D01*
X-25461000Y44334372D01*
X-25461000Y43665628D01*
X-25205083Y43047790D01*
X-24732210Y42574917D01*
X-24118997Y42320916D01*
X-23816990Y42018908D01*
X-23816989Y40048131D01*
X-23844945Y39907586D01*
X-23734194Y39350799D01*
X-23734193Y39350798D01*
X-23418798Y38878777D01*
X-23299649Y38799164D01*
X-21050826Y36550340D01*
X-20971213Y36431191D01*
X-20499192Y36115796D01*
X-20467270Y36109446D01*
X-20053842Y35833202D01*
X-19550091Y35733000D01*
X-19209909Y35733000D01*
X-18706158Y35833202D01*
X-18134903Y36214903D01*
X-17753202Y36786158D01*
X-17619167Y37460000D01*
X-17753202Y38133842D01*
X-18134903Y38705097D01*
X-18172173Y38730000D01*
X-18134903Y38754903D01*
X-17753202Y39326158D01*
X-17683042Y39678876D01*
X-17508917Y39853001D01*
X-12343080Y39853001D01*
X-12086999Y39596919D01*
X-12086998Y38763082D01*
X-15943100Y34906979D01*
X-24095881Y34906979D01*
X-24236422Y34934934D01*
X-24376962Y34906979D01*
X-24376965Y34906979D01*
X-24793209Y34824183D01*
X-25265230Y34508788D01*
X-25344842Y34389640D01*
X-27639660Y32094822D01*
X-27758809Y32015208D01*
X-28074204Y31543187D01*
X-28157000Y31126943D01*
X-28157000Y31126940D01*
X-28184955Y30986400D01*
X-28157000Y30845859D01*
X-28156999Y25350545D01*
X-28184955Y25210000D01*
X-28074204Y24653213D01*
X-28074203Y24653212D01*
X-27758808Y24181191D01*
X-27639659Y24101578D01*
X-26568422Y23030340D01*
X-26488809Y22911191D01*
X-26016788Y22595796D01*
X-25600544Y22513000D01*
X-25600541Y22513000D01*
X-25460001Y22485045D01*
X-25319460Y22513000D01*
X-22011079Y22513000D01*
X-20926999Y21428918D01*
X-20926999Y19244085D01*
X-20956649Y19263897D01*
X-21474983Y19367000D01*
X-21825017Y19367000D01*
X-22343351Y19263897D01*
X-22712858Y19017000D01*
X-31669460Y19017000D01*
X-31810001Y19044955D01*
X-31950541Y19017000D01*
X-31950544Y19017000D01*
X-32366788Y18934204D01*
X-32838809Y18618809D01*
X-32918422Y18499660D01*
X-46583082Y4834999D01*
X-52204866Y4834999D01*
X-52081000Y5134037D01*
X-52081000Y5805963D01*
X-52338135Y6426741D01*
X-52813259Y6901865D01*
X-53434037Y7159000D01*
X-54105963Y7159000D01*
X-54726741Y6901865D01*
X-54892529Y6736077D01*
X-54965796Y7104418D01*
X-55002267Y7159000D01*
X-55201580Y7457293D01*
X-55201582Y7457295D01*
X-55281192Y7576439D01*
X-55400336Y7656048D01*
X-56653947Y8909658D01*
X-56733561Y9028809D01*
X-57112349Y9281907D01*
X-56908442Y9366368D01*
X-56366368Y9908442D01*
X-56073000Y10616696D01*
X-56073000Y10908919D01*
X-48408918Y18573000D01*
X-35015347Y18573000D01*
X-34978267Y18535920D01*
X-34343522Y18273000D01*
X-33656478Y18273000D01*
X-33021733Y18535920D01*
X-32535920Y19021733D01*
X-32273000Y19656478D01*
X-32273000Y20343522D01*
X-32535920Y20978267D01*
X-33021733Y21464080D01*
X-33656478Y21727000D01*
X-34343522Y21727000D01*
X-34978267Y21464080D01*
X-35015347Y21427000D01*
X-40554919Y21427000D01*
X-36928917Y25053000D01*
X-34712538Y25053000D01*
X-34571998Y25025045D01*
X-34431458Y25053000D01*
X-34431454Y25053000D01*
X-34015210Y25135796D01*
X-33543189Y25451191D01*
X-33463574Y25570343D01*
X-30990337Y28043579D01*
X-30871191Y28123190D01*
X-30555795Y28595211D01*
X-30472999Y29011455D01*
X-30472999Y29011458D01*
X-30445044Y29151998D01*
X-30472999Y29292539D01*
X-30472999Y32860652D01*
X-30248267Y32635920D01*
X-29613522Y32373000D01*
X-28926478Y32373000D01*
X-28291733Y32635920D01*
X-27805920Y33121733D01*
X-27543000Y33756478D01*
X-27543000Y33808918D01*
X-26090337Y35261580D01*
X-25971191Y35341191D01*
X-25873016Y35488119D01*
X-25655796Y35813212D01*
X-25617638Y36005045D01*
X-25573000Y36229456D01*
X-25573000Y36229459D01*
X-25545045Y36370000D01*
X-25569413Y36492508D01*
X-25373202Y36786158D01*
X-25239167Y37460000D01*
X-25373202Y38133842D01*
X-25605887Y38482080D01*
X-25531670Y38531670D01*
X-25326785Y38838303D01*
X-25254839Y39200000D01*
X-25254839Y40800000D01*
X-25326785Y41161697D01*
X-25531670Y41468330D01*
X-25838303Y41673215D01*
X-26200000Y41745161D01*
X-27800000Y41745161D01*
X-28161697Y41673215D01*
X-28468330Y41468330D01*
X-28495946Y41427000D01*
X-28659460Y41427000D01*
X-28800000Y41454955D01*
X-28940540Y41427000D01*
X-28940544Y41427000D01*
X-29356788Y41344204D01*
X-29547446Y41216810D01*
X-29709662Y41108421D01*
X-29709663Y41108420D01*
X-29828809Y41028809D01*
X-29908420Y40909663D01*
X-32809658Y38008423D01*
X-32928807Y37928810D01*
X-33008419Y37809662D01*
X-33244203Y37456788D01*
X-33354954Y36900001D01*
X-33326998Y36759456D01*
X-33326999Y31786965D01*
X-33829909Y31887000D01*
X-34170091Y31887000D01*
X-34673842Y31786798D01*
X-34972860Y31587000D01*
X-36568918Y31587000D01*
X-39273000Y34291081D01*
X-39273000Y34343522D01*
X-39535920Y34978267D01*
X-40021733Y35464080D01*
X-40656478Y35727000D01*
X-40708918Y35727000D01*
X-40891577Y35909658D01*
X-40971191Y36028809D01*
X-41443212Y36344204D01*
X-41859456Y36427000D01*
X-41859460Y36427000D01*
X-42000000Y36454955D01*
X-42140540Y36427000D01*
X-43984653Y36427000D01*
X-44021733Y36464080D01*
X-44656478Y36727000D01*
X-45343522Y36727000D01*
X-45978267Y36464080D01*
X-46464080Y35978267D01*
X-46727000Y35343522D01*
X-46727000Y35296835D01*
X-46828808Y35228809D01*
X-47144203Y34756788D01*
X-47226999Y34340544D01*
X-47226999Y34340541D01*
X-47254954Y34200001D01*
X-47226999Y34059460D01*
X-47226998Y32791084D01*
X-64839659Y15178422D01*
X-64958809Y15098808D01*
X-65274204Y14626787D01*
X-65357000Y14210543D01*
X-65357000Y14210540D01*
X-65384955Y14070000D01*
X-65357000Y13929460D01*
X-65356999Y6745605D01*
X-65513259Y6901865D01*
X-66134037Y7159000D01*
X-66805963Y7159000D01*
X-67426741Y6901865D01*
X-67901865Y6426741D01*
X-68159000Y5805963D01*
X-68159000Y5134037D01*
X-67901865Y4513259D01*
X-67426741Y4038135D01*
X-66805963Y3781000D01*
X-66134037Y3781000D01*
X-65513259Y4038135D01*
X-65200000Y4351394D01*
X-64886741Y4038135D01*
X-64265963Y3781000D01*
X-63594037Y3781000D01*
X-62973259Y4038135D01*
X-62660000Y4351394D01*
X-62346741Y4038135D01*
X-61725963Y3781000D01*
X-61054037Y3781000D01*
X-60433259Y4038135D01*
X-60267471Y4203923D01*
X-60194204Y3835582D01*
X-59878808Y3363561D01*
X-59759660Y3283949D01*
X-59510701Y3034989D01*
X-68858907Y3034989D01*
X-70017098Y4193180D01*
X-69914785Y4346303D01*
X-69842839Y4708000D01*
X-69842839Y6232000D01*
X-69914785Y6593697D01*
X-70119670Y6900330D01*
X-70123000Y6902555D01*
X-70123000Y9397810D01*
X-70091558Y9366368D01*
X-69383304Y9073000D01*
X-68616696Y9073000D01*
X-67908442Y9366368D01*
X-67366368Y9908442D01*
X-67073000Y10616696D01*
X-67073000Y11383304D01*
X-67366368Y12091558D01*
X-67908442Y12633632D01*
X-68616696Y12927000D01*
X-68908918Y12927000D01*
X-70093000Y14111081D01*
X-70093000Y27057445D01*
X-70089670Y27059670D01*
X-70029030Y27150424D01*
X-69936741Y27058135D01*
X-69315963Y26801000D01*
X-68644037Y26801000D01*
X-68023259Y27058135D01*
X-67710000Y27371394D01*
X-67396741Y27058135D01*
X-66775963Y26801000D01*
X-66104037Y26801000D01*
X-65483259Y27058135D01*
X-65008135Y27533259D01*
X-64751000Y28154037D01*
X-64751000Y28538964D01*
X-64733000Y28629456D01*
X-64733000Y28629460D01*
X-64705045Y28770000D01*
X-64716176Y28825963D01*
X-63049000Y28825963D01*
X-63049000Y28154037D01*
X-62791865Y27533259D01*
X-62316741Y27058135D01*
X-61695963Y26801000D01*
X-61024037Y26801000D01*
X-60403259Y27058135D01*
X-60090000Y27371394D01*
X-59776741Y27058135D01*
X-59155963Y26801000D01*
X-58484037Y26801000D01*
X-57863259Y27058135D01*
X-57550000Y27371394D01*
X-57236741Y27058135D01*
X-56615963Y26801000D01*
X-55944037Y26801000D01*
X-55323259Y27058135D01*
X-54848135Y27533259D01*
X-54591000Y28154037D01*
X-54591000Y28538964D01*
X-54573000Y28629456D01*
X-54573000Y28629460D01*
X-54545045Y28770000D01*
X-54573000Y28910540D01*
X-54573000Y33420645D01*
X-54481670Y33481670D01*
X-54276785Y33788303D01*
X-54204839Y34150000D01*
X-54204839Y35850000D01*
X-54276785Y36211697D01*
X-54481670Y36518330D01*
X-54788303Y36723215D01*
X-55150000Y36795161D01*
X-56850000Y36795161D01*
X-57211697Y36723215D01*
X-57518330Y36518330D01*
X-57547806Y36474216D01*
X-57846649Y36673897D01*
X-58364983Y36777000D01*
X-58715017Y36777000D01*
X-59233351Y36673897D01*
X-59821145Y36281145D01*
X-60213897Y35693351D01*
X-60351813Y35000000D01*
X-60213897Y34306649D01*
X-59967000Y33937142D01*
X-59966999Y29731607D01*
X-60090000Y29608606D01*
X-60403259Y29921865D01*
X-61024037Y30179000D01*
X-61695963Y30179000D01*
X-62316741Y29921865D01*
X-62791865Y29446741D01*
X-63049000Y28825963D01*
X-64716176Y28825963D01*
X-64733000Y28910540D01*
X-64733000Y33937142D01*
X-64486103Y34306649D01*
X-64348187Y35000000D01*
X-64486103Y35693351D01*
X-64878855Y36281145D01*
X-65466649Y36673897D01*
X-65984983Y36777000D01*
X-66335017Y36777000D01*
X-66853351Y36673897D01*
X-67441145Y36281145D01*
X-67833897Y35693351D01*
X-67971813Y35000000D01*
X-67833897Y34306649D01*
X-67587000Y33937142D01*
X-67586999Y29731607D01*
X-67710000Y29608606D01*
X-68023259Y29921865D01*
X-68644037Y30179000D01*
X-69315963Y30179000D01*
X-69936741Y29921865D01*
X-70029030Y29829576D01*
X-70089670Y29920330D01*
X-70396303Y30125215D01*
X-70758000Y30197161D01*
X-72282000Y30197161D01*
X-72573000Y30139278D01*
X-72573000Y31327140D01*
X-72373202Y31626158D01*
X-72239167Y32300000D01*
X-72373202Y32973842D01*
X-72754903Y33545097D01*
X-73326158Y33926798D01*
X-73829909Y34027000D01*
X-74170091Y34027000D01*
X-74673842Y33926798D01*
X-75245097Y33545097D01*
X-75626798Y32973842D01*
X-75760833Y32300000D01*
X-75626798Y31626158D01*
X-75427000Y31327140D01*
X-75426999Y13594947D01*
X-75454955Y13454402D01*
X-75344204Y12897615D01*
X-75344203Y12897614D01*
X-75028808Y12425593D01*
X-74909659Y12345980D01*
X-73087431Y10523751D01*
X-73336696Y10627000D01*
X-74103304Y10627000D01*
X-74811558Y10333632D01*
X-75353632Y9791558D01*
X-75647000Y9083304D01*
X-75647000Y8316696D01*
X-75353632Y7608442D01*
X-74811558Y7066368D01*
X-74103304Y6773000D01*
X-73336696Y6773000D01*
X-72976999Y6921991D01*
X-72976999Y6902556D01*
X-72980330Y6900330D01*
X-73185215Y6593697D01*
X-73257161Y6232000D01*
X-73257161Y4708000D01*
X-73185215Y4346303D01*
X-72980330Y4039670D01*
X-72976999Y4037444D01*
X-72976999Y3848545D01*
X-73004955Y3708000D01*
X-72894204Y3151213D01*
X-72894203Y3151212D01*
X-72578808Y2679191D01*
X-72459659Y2599578D01*
X-70987082Y1127000D01*
X-76873000Y1127000D01*
X-76873000Y48110000D01*
X-76716711Y48110000D01*
X-76559392Y47319104D01*
X-76111385Y46648615D01*
X-75440896Y46200608D01*
X-75274781Y46167566D01*
X-75464080Y45978267D01*
X-75727000Y45343522D01*
X-75727000Y44656478D01*
X-75464080Y44021733D01*
X-74978267Y43535920D01*
X-74343522Y43273000D01*
X-73656478Y43273000D01*
X-73021733Y43535920D01*
X-72984653Y43573000D01*
X-70005296Y43573000D01*
X-69374785Y42942489D01*
X-68482760Y42573000D01*
X-67517240Y42573000D01*
X-66625215Y42942489D01*
X-65942489Y43625215D01*
X-65573000Y44517240D01*
X-65573000Y45482760D01*
X-65942489Y46374785D01*
X-66625215Y47057511D01*
X-67517240Y47427000D01*
X-68482760Y47427000D01*
X-69374785Y47057511D01*
X-70005296Y46427000D01*
X-72220285Y46427000D01*
X-71888615Y46648615D01*
X-71440608Y47319104D01*
X-71283289Y48110000D01*
X-71440608Y48900896D01*
X-71888615Y49571385D01*
X-72559104Y50019392D01*
X-73150359Y50137000D01*
X-74849641Y50137000D01*
X-75440896Y50019392D01*
X-76111385Y49571385D01*
X-76559392Y48900896D01*
X-76716711Y48110000D01*
X-76873000Y48110000D01*
X-76873000Y60873000D01*
X-1127000Y60873000D01*
X-1127000Y40136732D01*
G04 #@! TD*
M02*
